<svg viewBox="-138.24 -138.24 788.48 788.48" xmlns="http://www.w3.org/2000/svg" fill="#0028f5" stroke="#0028f5"><g id="SVGRepo_bgCarrier" stroke-width="0"><path transform="translate(-138.24, -138.24), scale(24.64)" d="M16,26.669404645760856C19.75329698782039,26.437084618409703,23.70417989207732,26.897770475641043,26.46863764345511,24.34845993850805C29.777083905724574,21.297497443697555,32.75729297633867,16.773713288140623,31.375325300632205,12.49068233350493C30.043995005130846,8.364588093593218,24.64754300236849,8.024139888725898,20.655601512549296,6.332543845276854C17.067028217395148,4.8118761693624466,13.332030707550821,1.4951668898155368,9.934630046456506,3.405129513339972C6.590871215532793,5.2849355845753125,8.100668746514135,10.266388890181505,7.0805755440163,13.964199572605805C5.938549661840231,18.10401297041606,1.3020342216424021,22.238685946023622,3.7695224232754523,25.753480400760772C6.240901589859263,29.27381731038118,11.706996814714518,26.935131184497482,16,26.669404645760856" fill="#fff" strokewidth="0"></path></g><g id="SVGRepo_tracerCarrier" stroke-linecap="round" stroke-linejoin="round"></g><g id="SVGRepo_iconCarrier"><title>ionicons-v5-h</title><path d="M393.87,190a32.1,32.1,0,0,1-45.25,0l-26.57-26.57a32.09,32.09,0,0,1,0-45.26L382.19,58a1,1,0,0,0-.3-1.64c-38.82-16.64-89.15-8.16-121.11,23.57-30.58,30.35-32.32,76-21.12,115.84a31.93,31.93,0,0,1-9.06,32.08L64,380a48.17,48.17,0,1,0,68,68L285.86,281a31.93,31.93,0,0,1,31.6-9.13C357,282.46,402,280.47,432.18,250.68c32.49-32,39.5-88.56,23.75-120.93a1,1,0,0,0-1.6-.26Z" style="fill:none;stroke:#0028f5;stroke-linecap:round;stroke-miterlimit:10;stroke-width:32px"></path><circle cx="96" cy="416" r="16"></circle></g></svg>