<svg viewBox="-307.2 -307.2 1638.40 1638.40" class="icon" version="1.1" xmlns="http://www.w3.org/2000/svg" fill="#0028f5" stroke="#0028f5" transform="rotate(0)"><g id="SVGRepo_bgCarrier" stroke-width="0"><path transform="translate(-307.2, -307.2), scale(51.2)" d="M16,27.123551812488586C19.01662180260956,26.986994945419884,22.096085873021348,27.862319951192095,24.759247555648106,26.438864742865682C27.886502430293465,24.767352544369558,31.097761753046765,22.262166072787196,31.648786267994716,18.7593032343876C32.197116014714105,15.273571037601712,29.930148698070266,11.895303640767178,27.44038212503456,9.394892300479118C25.381121302807383,7.326827298614418,22.133983604932666,7.665940059181537,19.453422592635356,6.5117994068999305C16.48222030392578,5.232520430663173,14.173851548946745,1.5928970852714421,11.02318548945545,2.3263145114647354C7.8651744725675785,3.061441709384889,6.405929035943305,6.770204714907414,5.280379950198656,9.811024478636677C4.316068644161868,12.416239048949505,5.059608980421024,15.122927280601736,5.261018015479161,17.893572269213156C5.4966950872389155,21.135618970908038,4.083860284634339,25.144418620502144,6.549047423840152,27.263206686075996C9.012731264907432,29.380702691463313,12.754704129195886,27.270460329971502,16,27.123551812488586" fill="#fff" strokewidth="0"></path></g><g id="SVGRepo_tracerCarrier" stroke-linecap="round" stroke-linejoin="round"></g><g id="SVGRepo_iconCarrier"><path d="M960.1 258.4H245.8l-36.1-169H63.9v44h110.2l26.7 125 100.3 469.9 530 0.4v-44l-494.4-0.3-22.6-105.9H832l128.1-320.1z m-65 44L855.6 401H276.3l-21.1-98.6h639.9zM304.8 534.5L279.7 417h569.5l-47 117.5H304.8z" fill="#fffffff"></path><path d="M375.6 810.6c28.7 0 52 23.3 52 52s-23.3 52-52 52-52-23.3-52-52 23.3-52 52-52m0-20c-39.7 0-72 32.2-72 72s32.2 72 72 72 72-32.2 72-72-32.3-72-72-72zM732 810.6c28.7 0 52 23.3 52 52s-23.3 52-52 52-52-23.3-52-52 23.3-52 52-52m0-20c-39.7 0-72 32.2-72 72s32.2 72 72 72c39.7 0 72-32.2 72-72s-32.3-72-72-72zM447.5 302.4h16v232.1h-16zM652 302.4h16v232.1h-16z" fill="#fffff"></path><path d="M276.3 401l3.4 16-3.4-16z" fill="#fff"></path></g></svg>