<svg viewBox="-307.2 -307.2 1638.40 1638.40" class="icon" version="1.1" xmlns="http://www.w3.org/2000/svg" fill="#0028f5"><g id="SVGRepo_bgCarrier" stroke-width="0"><path transform="translate(-307.2, -307.2), scale(51.2)" d="M16,28.558759921696037C19.440964717685368,28.952478217524344,22.805475852950746,27.670317106682756,25.522424222593333,25.522424222593337C28.635776834033646,23.061152600912305,32.0291688244841,19.966148672021735,31.88603535434231,16C31.744719774412367,12.084224052418172,27.646916843068436,9.894324374178204,24.859058906711468,7.140941093288534C22.101038416005437,4.417026288151646,19.86287361320412,-0.013002193173748067,16.000000000000004,0.31041138293221593C12.165102765479443,0.6314826766902346,11.116432726422598,5.6787213715628395,8.509762577523649,8.509762577523645C6.110489160667474,11.115555224650596,1.5719379257543211,12.457918424421006,1.5538724726065993,15.999999999999998C1.5357989067846387,19.543672222307634,5.758574290103162,21.24204630144707,8.432966939524299,23.567033060475698C10.803646457591322,25.62798641023876,12.87908172220596,28.201661629046576,16,28.558759921696037" fill="#fff" strokewidth="0"></path></g><g id="SVGRepo_tracerCarrier" stroke-linecap="round" stroke-linejoin="round"></g><g id="SVGRepo_iconCarrier"><path d="M517.8 811c17.1 0 31 13.9 31 30.9 0 17.1-13.9 30.9-31 30.9s-31-13.9-31-30.9 13.9-30.9 31-30.9m0-20c-28.1 0-51 22.8-51 50.9 0 28.1 22.8 50.9 51 50.9s51-22.8 51-50.9c-0.1-28.1-22.9-50.9-51-50.9zM334.218 304.477l65.69-65.69 14.142 14.143-65.69 65.69zM352.086 387.799L483.253 256.63l14.142 14.142-131.167 131.168z" fill="#0028f5"></path><path d="M808 108.4v807.2H216V108.4h592m44-44H172v895.2h680V64.4z" fill="#0028f5"></path><path d="M747.1 173.4v572.9H279.9V173.4h467.2m22-22H257.9v616.9h511.2V151.4z" fill="#0028f5"></path></g></svg>