<svg viewBox="-307.2 -307.2 1638.40 1638.40" class="icon" version="1.1" xmlns="http://www.w3.org/2000/svg" fill="#0028f5"><g id="SVGRepo_bgCarrier" stroke-width="0" transform="translate(0,0), scale(1)"><path transform="translate(-307.2, -307.2), scale(51.2)" d="M16,30.08072847340788C18.025232732313786,30.167471568471843,20.285219734686375,30.543096011709537,21.97955129349548,29.430292096637366C23.701081854354545,28.299624407612637,23.672014035305555,25.679383033489632,25.04242762740417,24.14183840598524C26.404215092594058,22.613971918832902,29.063305579930276,22.381756547291843,29.919012205880996,20.52256121779697C30.758028284245587,18.699629471144366,30.019618196213862,16.508598512457144,29.439915797379946,14.587407928081298C28.90478701315714,12.813938672571291,27.79353891425579,11.316282599936132,26.69175447034241,9.827112678438429C25.66804429116589,8.443467796190891,24.632598419781853,7.040174566475651,23.176723250628193,6.122087869610251C21.754186397483235,5.225024585378008,19.997282787121645,5.196856002525873,18.420734354328598,4.611340269576809C16.59967495393326,3.935015389612766,15.041857691962907,2.2282142845949773,13.10533363669466,2.381665470299179C11.198830636614526,2.5327377717844244,9.889232788555086,4.337113385807217,8.307868369956164,5.412689094523204C6.685589986093934,6.516092713534183,4.702288279718084,7.217350486408116,3.6047123344321648,8.843577329601555C2.4953424184376596,10.487278746501275,1.9746007341309262,12.56809040958885,2.1450891955440916,14.543790195223494C2.3104479591217486,16.46004465048223,3.75368068069499,17.968712442778546,4.543479516065053,19.72244915552621C5.258165751180266,21.309399442721414,5.692589742015235,22.976052045727627,6.608953799369704,24.45573597923537C7.631566794158939,26.106983653608694,8.57801319651062,27.929629943428438,10.244237239805518,28.927654821265214C11.941404120919065,29.94421365439939,14.023487771883866,29.996072134724926,16,30.08072847340788" fill="#fff" strokewidth="0"></path></g><g id="SVGRepo_tracerCarrier" stroke-linecap="round" stroke-linejoin="round" stroke="#CCCCCC" stroke-width="4.096"></g><g id="SVGRepo_iconCarrier"><path d="M511.3 676.9m-10 0a10 10 0 1 0 20 0 10 10 0 1 0-20 0Z" fill="#0028f5"></path><path d="M960 756V138.5H64V756h320.1v85.5H256.2v44h511.9v-44h-128V756H960zM108 182.5h808v427.1H108V182.5z m488.1 659h-168V756h168v85.5zM108 712v-82.5h808V712H108z" fill="#0028f5"></path><path d="M167.536 327.703l90.72-90.721 14.143 14.142-90.721 90.72zM172.959 423.469l181.159-181.16 14.142 14.143L187.1 437.61z" fill="#0028f5"></path></g></svg>